<?xml version="1.0" standalone="no"?><!DOCTYPE svg PUBLIC "-//W3C//DTD SVG 1.1//EN" "http://www.w3.org/Graphics/SVG/1.1/DTD/svg11.dtd"><svg t="1550023411828" class="icon" style="" viewBox="0 0 1024 1024" version="1.1" xmlns="http://www.w3.org/2000/svg" p-id="11159" xmlns:xlink="http://www.w3.org/1999/xlink" width="64" height="64"><defs><style type="text/css"></style></defs><path d="M372.394 748.642H118.056c-30.122 0-53.528-23.47-53.528-53.558v-50.252c0-16.664 6.68-33.456 23.408-43.506 6.71-6.618 16.73-9.988 23.44-13.362l177.374-97.034 16.73-23.44-16.73 20.068c-63.578-50.186-87.018-150.594-87.018-204.12V169.644C205.074 89.336 308.818 9 409.222 9c100.408 0 204.124 83.676 204.124 160.644v117.134c0 13.392-3.308 143.884-80.306 204.152 0 13.388-10.02 26.75-23.408 30.118-13.392 0-26.78-10.048-30.122-23.44 0-20.07 6.68-36.796 20.07-46.848 46.85-36.828 60.208-123.846 60.208-163.984V169.644c0-40.17-70.256-107.086-150.564-107.086-80.304 0-153.934 66.916-153.934 107.086v117.134c0 46.848 20.072 127.156 66.918 163.984 13.388 10.052 23.438 30.12 20.068 46.848-3.342 20.072-13.358 33.458-30.12 43.508l-180.712 97.1c-6.678 3.308-10.048 6.616-16.726 9.988v50.188h254.338c13.388 0 26.78 13.422 26.78 26.78-0.002 13.418-10.05 23.468-23.442 23.468z" fill="" p-id="11160"></path><path d="M911.64 681.724L888 674.982v-3.308l13.296-23.468c16.73-26.782 13.36-56.868-3.432-73.598l-20.068-20.098c-20.1-20.07-53.572-20.35-77.042-3.588L780.7 564h-3.372l-6.678-23.626C767.28 516.938 743.872 490 713.784 490h-30.088c-26.842 0-50.252 20.536-56.93 50.652l-6.682 23.672s-3.368 0.116-3.368 3.426l-20.04-13.298c-23.468-16.73-56.928-13.364-77.028 3.338l-20.072 20.114c-20.07 20.102-20.07 50.258-3.34 73.666l13.392 23.41-27.112 3.31C459.08 681.722 432 705.132 432 735.22v30.09c0 26.84 20.4 50.246 50.52 56.928l23.604 6.678-13.304 23.41c-16.73 26.842-13.35 56.926 3.38 73.656l20.088 20.102c20.102 20.098 53.542 20.098 76.948 3.308l23.476-13.358c3.368 0 3.372 0 6.682 3.306l6.742 23.972C636.75 993.402 660.222 1014 687.004 1014h26.78c30.088 0 50.188-26.95 56.868-50.356L777.328 940h3.372l20.04 13.09c23.47 16.73 56.928 13.256 77.028-3.534l20.038-20.184c20.102-20.04 20.102-50.164 3.372-73.636l-13.422-23.428 23.764-6.692c30.09-6.74 50.484-30.158 50.484-56.936v-30.09c-0.004-30.146-26.89-53.554-50.364-56.866z m4.36 83.338l-1.942 2.464-0.182 0.18c-1.224 1.204-5.766 5.07-13.85 5.552l-32.404 13.018-0.112 0.038c-6.974 2.336-12.602 6.964-15.442 12.696l-10.046 20.124c-2.23 4.502-2.148 12.276 0.194 19.892l19.084 31.996c4.236 5 4.7 11.95 4.7 14.746v3.672L837.868 914h-2.982c-6.912 0-11.444-2.062-13.498-6.134l-31.638-19.034-0.718-0.75c-1.736-1.734-3.852-2.61-6.408-2.61-3.076 0-6.612 1.268-10.222 3.668l-0.446 0.294-0.468 0.224c-3.538 1.754-7.878 3.506-12.078 5.2-4.104 1.652-8.2 3.302-11.292 4.834l-0.502 0.252-0.436 0.178c-7.416 2.44-11.176 6.646-11.176 12.5v0.982l-10.158 40.634c-0.668 7.376-7.454 13.76-14.738 13.76h-33.72l-2.274-2.81c-1.038-1.12-5.342-6.292-5.464-15.262l-3.246-35.524c-2.436-6.634-6.936-11.966-12.404-14.676-2.962-1.454-6.862-3.046-10.932-4.686-3.88-1.564-8.714-3.51-12.504-5.404-5.028-2.466-10.352-2.466-13.212-2.466-0.6 0.074-3.108 0.898-4.178 1.25-2.244 0.738-4.37 1.438-6.454 1.8l-34.834 22.138c-1.532 1.202-4.608 3.02-9.182 3.02-2.988 0-6.07-0.796-9.156-2.366l-1.542-0.786-0.29-0.984L530 889.074v-3.292c-0.106-6.12 1.382-11.126 4.306-14.63l19.378-35.998c2.108-4.264 1.946-12.014-0.454-19.74l-0.1-0.156-0.602-1.208c-3.12-6.268-6.342-12.742-6.724-20.114-2.442-6.594-6.514-9.936-12.108-9.936h-1l-40.25-10.39c-8.01-0.312-12.656-4.102-14.3-5.742l-0.246-0.246-1.9-2.686v-36.158l1.958-2.446 0.162-0.16c0.716-0.714 4.62-4.432 11.792-8.074l0.652-0.392 37.494-10.178c6.84-2.348 12.382-6.966 15.22-12.69 0.814-1.642 1.392-3.38 2.062-5.394l3.862 1.066-3.796-1.26c1.484-4.472 3.318-10.004 8.348-15.494 1.804-4.59 1.59-11.664-0.582-18.77l-22.358-35.36c-4.34-5.008-4.812-12.072-4.812-14.914v-3.656L554.174 576h2.996c8.75 0 12.232 3.762 13.616 6.774l31.854 22.454 0.446 0.59c1.81 1.732 3.886 2.574 6.342 2.574 3.086 0 6.614-1.272 10.202-3.68l0.536-0.332 0.43-0.206c3.466-1.716 7.724-3.43 11.842-5.086l0.188-0.074c4.014-1.614 8.166-3.282 11.3-4.846l0.524-0.26 0.438-0.18c7.376-2.43 11.118-6.616 11.118-12.442v-0.99l10.186-40.254c0.224-5.636 2.294-10.768 5.716-14.136l0.366-0.36 0.492-0.304 2.154-1.242h35.588l2.542 1.534 0.346 0.346c1.02 0.996 4.61 4.782 8.05 11.638l0.448 0.632 10.26 40.952c2.294 6.762 6.878 12.256 12.594 15.086 3.05 1.538 7.102 3.158 11.018 4.724l0.722 0.29c4.044 1.622 8.228 3.294 11.708 5.004 1.644 0.836 5.044 1.704 9.808 1.704 4.358 0 7.622-0.738 9.344-1.47l32.538-23.092c4.044-3.45 9.368-5.346 15.008-5.346h3.392L862 601.46v3.234c0.112 6.246-1.388 11.316-4.344 14.82l-19.304 32.534c-3.658 7.372-3.792 13.01-0.426 18.216l0.248 0.266 0.466 0.748 0.088 0.18c1.676 3.414 3.292 7.378 5.082 11.832 1.56 3.882 3.33 8.286 4.952 11.496l0.438 0.842 0.138 1.006c2.562 7.542 6.708 11.366 12.328 11.366h0.964l40.09 9.634c7.356 0.66 13.28 6.958 13.28 14.214v33.214z" fill="" p-id="11161"></path><path d="M697.052 631.474c-63.61 0-117.168 53.56-117.168 117.168 0 63.542 53.558 117.106 117.168 117.106 63.608 0 117.104-53.562 117.104-117.106 0-63.606-53.496-117.168-117.104-117.168z m0 188.712c-39.486 0-71.61-32.094-71.61-71.542 0-38.146 33.462-71.608 71.61-71.608 39.484 0 71.608 32.124 71.608 71.608 0 39.448-32.122 71.542-71.608 71.542z" fill="" p-id="11162"></path></svg>