<?xml version="1.0" standalone="no"?><!DOCTYPE svg PUBLIC "-//W3C//DTD SVG 1.1//EN" "http://www.w3.org/Graphics/SVG/1.1/DTD/svg11.dtd"><svg t="1558318864436" class="icon" style="" viewBox="0 0 1024 1024" version="1.1" xmlns="http://www.w3.org/2000/svg" p-id="13911" xmlns:xlink="http://www.w3.org/1999/xlink" width="200" height="200"><defs><style type="text/css"></style></defs><path d="M888.968533 830.8736c-35.4304-7.099733-75.639467 16.5888-87.313066 51.473067l-16.5888 46.011733a228.625067 228.625067 0 0 1-61.8496 0l-14.609067-43.690667a81.783467 81.783467 0 0 0-86.903467-53.8624l-50.653866 7.509334a68.744533 68.744533 0 0 1-9.762134-15.291734 174.557867 174.557867 0 0 1-11.537066-22.186666l31.266133-36.6592a80.554667 80.554667 0 0 0 0-100.898134l-30.993067-36.386133 0.546134-1.2288c6.3488-12.629333 12.629333-25.531733 20.8896-36.386133l45.738666 7.304533c37.546667 7.236267 77.482667-16.1792 89.156267-51.268267l16.5888-44.168533c19.797333-2.798933 40.072533-2.798933 60.0064 0l14.5408 41.7792c11.810133 35.362133 48.9472 58.914133 86.6304 53.794133l47.991467-5.461333c3.959467 5.461333 7.168 10.376533 10.24 16.5888l0.341333 0.682667c4.642133 7.7824 8.055467 14.267733 11.332267 20.48l-31.061334 36.317866c-23.074133 27.648-22.050133 71.953067 2.116267 100.898134l29.422933 34.884266c-5.461333 14.199467-13.243733 26.8288-20.343466 37.000534l-45.192534-7.236267z m81.92-101.5808a21.367467 21.367467 0 0 1-0.136533-24.917333L1024 640.341333l-11.0592-26.965333c-4.7104-11.195733-9.557333-22.801067-13.858133-30.037333-6.5536-15.1552-15.018667-25.941333-26.8288-40.004267l-11.605334-11.605333-81.237333 10.922666c-9.557333 1.4336-19.729067-6.280533-22.459733-14.336l-26.624-75.298133-17.6128-2.8672a281.668267 281.668267 0 0 0-119.330134 0l-15.5648 3.072-28.2624 76.1856c-4.232533 8.533333-13.994667 15.086933-22.801066 13.243733l-79.189334-13.1072-12.288 12.288a262.621867 262.621867 0 0 0-49.015466 84.992l-6.144 15.5648 53.725866 64.853334c4.3008 4.232533 4.983467 15.018667-0.4096 21.7088L477.866667 791.005867l5.9392 14.609066c3.754667 14.677333 10.581333 30.5152 21.367466 49.288534 7.3728 14.609067 16.247467 27.2384 26.624 37.546666l11.605334 11.605334 83.3536-13.038934c7.850667-1.706667 17.749333 4.5056 20.138666 12.0832l26.692267 77.482667 17.6128 2.8672a288.017067 288.017067 0 0 0 121.4464 0l15.633067-3.072 28.740266-79.394133c2.594133-7.645867 11.946667-13.7216 20.206934-12.014934l81.237333 13.1072 11.946667-12.0832c19.114667-20.8896 35.089067-48.9472 47.240533-83.1488l6.3488-15.701333-53.111467-61.8496z" fill="#e6e6e6" p-id="13912"></path><path d="M621.226667 271.223467c0 114.346667-89.429333 207.325867-199.338667 207.325866-109.9776 0-199.4752-92.9792-199.4752-207.325866 0-114.346667 89.429333-207.325867 199.406933-207.325867C531.797333 63.8976 621.226667 156.8768 621.226667 271.223467m61.44 0C682.666667 121.719467 565.6576 0 421.888 0 277.9136 0 160.9728 121.6512 160.9728 271.223467c0 95.778133 47.445333 182.8864 125.405867 232.379733C116.667733 565.316267 0 734.754133 0 923.8528c0 18.773333 12.561067 31.880533 30.72 31.880533 18.0224 0 30.583467-13.1072 30.583467-31.880533 0-210.3296 164.522667-381.405867 369.186133-381.405867C571.869867 537.941333 682.666667 418.747733 682.666667 271.223467M792.849067 716.8c0 23.483733-18.432 41.915733-41.984 41.915733a41.437867 41.437867 0 0 1-41.847467-41.915733c0-23.552 18.432-41.984 41.847467-41.984 23.552 0 41.984 18.432 41.984 41.984M750.865067 614.4c-56.388267 0-102.331733 45.943467-102.331734 102.4S694.4768 819.2 750.933333 819.2c55.5008 0 102.4-46.8992 102.4-102.4 0-56.456533-45.943467-102.4-102.4-102.4" fill="#e6e6e6" p-id="13913"></path></svg>