<?xml version="1.0" standalone="no"?><!DOCTYPE svg PUBLIC "-//W3C//DTD SVG 1.1//EN" "http://www.w3.org/Graphics/SVG/1.1/DTD/svg11.dtd"><svg t="1550024472942" class="icon" style="" viewBox="0 0 1024 1024" version="1.1" xmlns="http://www.w3.org/2000/svg" p-id="13374" xmlns:xlink="http://www.w3.org/1999/xlink" width="64" height="64"><defs><style type="text/css"></style></defs><path d="M104.561778 879.957333h813.283555c57.742222 0 104.561778-47.900444 104.561778-106.951111V107.633778c0-59.050667-46.819556-106.951111-104.561778-106.951111H104.561778C46.819556 0.682667 0 48.583111 0 107.633778v665.372444c0 59.050667 46.819556 106.951111 104.561778 106.951111zM69.688889 107.633778c0-19.569778 15.701333-35.612444 34.872889-35.612445h813.283555c19.171556 0 34.872889 16.042667 34.872889 35.612445v665.372444a35.384889 35.384889 0 0 1-34.872889 35.669334H104.561778a35.384889 35.384889 0 0 1-34.872889-35.669334V107.633778z m919.04 843.662222H36.010667a35.214222 35.214222 0 0 0-34.872889 35.612444c0 19.740444 15.587556 35.669333 34.872889 35.669334H988.728889c19.342222 0 34.872889-15.928889 34.872889-35.669334a35.214222 35.214222 0 0 0-34.872889-35.669333z" fill="#A3A3A3" p-id="13375"></path><path d="M441.457778 522.296889h139.491555V165.888H441.457778zM441.457778 662.528c0 39.367111 31.288889 71.281778 69.745778 71.281778 38.513778 0 69.745778-31.857778 69.745777-71.281778 0-39.367111-31.232-71.281778-69.745777-71.281778-38.513778 0-69.688889 31.857778-69.688889 71.281778z" fill="#A3A3A3" p-id="13376"></path></svg>