<?xml version="1.0" standalone="no"?><!DOCTYPE svg PUBLIC "-//W3C//DTD SVG 1.1//EN" "http://www.w3.org/Graphics/SVG/1.1/DTD/svg11.dtd"><svg t="1549775289913" class="icon" style="" viewBox="0 0 1024 1024" version="1.1" xmlns="http://www.w3.org/2000/svg" p-id="4636" xmlns:xlink="http://www.w3.org/1999/xlink" width="64" height="64"><defs><style type="text/css"></style></defs><path d="M932.97777778 825.68533333L817.83466667 626.23288889c53.02044445-67.47022222 81.80622222-150.30044445 81.80622222-237.45422222 0-102.96888889-40.16355555-199.79377778-112.86755556-272.61155556-72.93155555-72.93155555-169.75644445-113.09511111-272.72533333-113.09511111S314.25422222 43.23555555 241.43644445 115.93955555C168.61866667 188.87111111 128.56888889 285.58222222 128.56888889 388.55111111c0 95.34577778 34.36088889 185.344 97.28 255.88622222l-104.448 181.13422222c-13.08444445 22.75555555-11.37777778 50.97244445 4.66488889 71.79377778 16.04266667 20.82133333 42.78044445 29.92355555 68.03911111 23.09688889l68.608-18.31822222 18.31822222 68.49422222c6.71288889 25.37244445 28.10311111 44.032 54.15822222 47.44533333 2.84444445 0.34133333 5.68888889 0.56888889 8.53333334 0.5688889 22.86933333 0 44.25955555-12.17422222 55.97866666-32.42666667L522.24 774.03022222c3.41333333-0.11377778 6.71288889-0.11377778 10.12622222-0.34133333l122.53866667 212.42311111c11.71911111 20.25244445 32.99555555 32.42666667 55.86488889 32.42666667 2.73066667 0 5.68888889-0.22755555 8.53333333-0.56888889 26.05511111-3.41333333 47.21777778-22.07288889 54.04444444-47.44533333l18.31822223-68.608 68.49422222 18.31822222c25.37244445 6.71288889 52.224-2.27555555 68.03911111-23.09688889 15.81511111-20.82133333 17.86311111-48.81066667 4.77866667-71.45244445zM295.936 170.55288889c58.368-58.368 135.62311111-90.33955555 218.112-90.33955556 82.37511111 0 159.85777778 32.08533333 218.112 90.33955556 58.368 58.368 90.33955555 135.62311111 90.33955555 218.112 0 67.92533333-21.95911111 132.66488889-62.23644444 185.91288889l-18.54577778 20.48c-49.94844445 55.18222222-118.784 90.22577778-193.64977778 98.53155555l-27.19288888 2.95822222-18.88711112-0.68266666c-75.776-2.95822222-147.34222222-33.22311111-201.38666666-85.21955556l-13.42577778-12.85688888c-52.67911111-57.23022222-81.57866667-130.95822222-81.57866666-209.12355556 0-82.48888889 32.08533333-159.97155555 90.33955555-218.112z m51.65511111 751.27466666l-16.61155556-61.8951111c-3.75466667-13.99466667-12.62933333-25.48622222-25.14488888-32.768-8.30577778-4.77866667-17.63555555-7.28177778-26.85155556-7.28177778-4.66488889 0-9.44355555 0.56888889-14.10844444 1.82044444l-61.89511112 16.61155556 81.00977778-140.288c45.62488889 34.13333333 97.84888889 57.344 153.37244445 68.608l-89.77066667 155.19288888z m441.68533334-100.12444444c-28.672-7.73688889-58.48177778 9.44355555-66.1048889 38.22933334L706.56 921.94133333l-92.72888889-160.65422222c54.272-14.44977778 104.67555555-40.61866667 148.25244444-77.36888889L851.05777778 838.42844445l-61.78133333-16.72533334z m0 0" fill="" p-id="4637"></path><path d="M514.048 562.176c95.68711111 0 173.51111111-77.824 173.51111111-173.51111111s-77.824-173.51111111-173.51111111-173.51111111-173.51111111 77.824-173.51111111 173.51111111 77.824 173.51111111 173.51111111 173.51111111z m0-269.99466667c53.13422222 0 96.36977778 43.23555555 96.36977778 96.36977778s-43.23555555 96.36977778-96.36977778 96.36977778-96.36977778-43.23555555-96.36977778-96.36977778 43.23555555-96.36977778 96.36977778-96.36977778z m0 0" fill="" p-id="4638"></path></svg>