<?xml version="1.0" standalone="no"?><!DOCTYPE svg PUBLIC "-//W3C//DTD SVG 1.1//EN" "http://www.w3.org/Graphics/SVG/1.1/DTD/svg11.dtd"><svg t="1560233444819" class="icon" style="" viewBox="0 0 1024 1024" version="1.1" xmlns="http://www.w3.org/2000/svg" p-id="5460" xmlns:xlink="http://www.w3.org/1999/xlink" width="200" height="200"><defs><style type="text/css"></style></defs><path d="M64 433.92c0-26.71616-7.77216-66.60608 4.89472-91.04896 9.35424-18.048 28.29312-17.75104 45.36832-17.75104h792.3456c9.42592 0 19.67104-1.024 29.05088 0.50176 27.9552 4.5568 29.4656 30.4896 29.4656 52.49536V887.08608c0 20.95104 0.78848 43.35104-23.22432 52.77184-9.82016 3.85536-23.14752 2.22208-33.50016 2.22208H101.33504c-46.3104 0-37.33504-54.84032-37.33504-85.76 0-33.01376-51.2-33.01376-51.2 0 0 39.92064-3.55328 76.1856 23.32672 109.184 17.31584 21.26336 45.62432 27.776 71.6544 27.776H928.60928c49.4592 0 85.13536-39.3216 87.7056-87.04 2.2528-41.89696 0-84.5312 0-126.46912v-246.28224-166.40512c0-60.54912-45.0816-93.16352-101.45792-93.16352H162.70336c-23.13216 0-46.45376-0.88576-69.56544 0.3584C48.16384 276.70016 12.8 317.16864 12.8 361.3952V433.92c0 33.01888 51.2 33.01888 51.2 0z" p-id="5461" fill="#e6e6e6"></path><path d="M63.08352 367.76448l44.45696-184.54528c5.6832-23.58784 9.06752-53.65248 20.51584-75.19744 9.57952-18.02752 27.392-16.71168 44.42112-16.71168h702.19776c42.79808 0 48.50176 87.04512 55.58784 118.36928l35.76832 158.09024c7.28576 32.19968 56.64256 18.54464 49.37216-13.60896-13.92128-61.5168-27.84256-123.0336-41.7536-184.5504-13.19936-58.32704-25.30816-129.49504-101.05856-129.49504H157.85984c-75.8528 0-86.81472 76.04224-100.69504 133.66784l-43.44832 180.3776c-7.7312 32.08192 41.64096 45.696 49.36704 13.60384zM38.4 565.76H343.04c33.01888 0 33.01888-51.2 0-51.2H38.4c-33.01888 0-33.01888 51.2 0 51.2zM38.4 669.44h230.4c33.01888 0 33.01888-51.2 0-51.2h-230.4c-33.01888 0-33.01888 51.2 0 51.2zM38.4 770.56h152.32c33.01888 0 33.01888-51.2 0-51.2H38.4c-33.01888 0-33.01888 51.2 0 51.2zM499.2 673.46944h295.85408c22.32832 0 33.89952-27.904 18.0992-43.6992L685.60384 502.2208c-23.36256-23.36768-59.5712 12.83584-36.1984 36.1984l127.54944 127.54944 18.0992-43.6992H499.2c-33.01888 0-33.01888 51.2 0 51.2zM728.6528 708.25984l-63.40096 63.40096c-23.36768 23.36256 12.83584 59.5712 36.1984 36.1984l63.40096-63.40096c23.3728-23.36256-12.83072-59.56608-36.1984-36.1984z" p-id="5462" fill="#e6e6e6"></path></svg>