<?xml version="1.0" standalone="no"?><!DOCTYPE svg PUBLIC "-//W3C//DTD SVG 1.1//EN" "http://www.w3.org/Graphics/SVG/1.1/DTD/svg11.dtd"><svg t="1558318826398" class="icon" style="" viewBox="0 0 1085 1024" version="1.1" xmlns="http://www.w3.org/2000/svg" p-id="13104" xmlns:xlink="http://www.w3.org/1999/xlink" width="211.9140625" height="200"><defs><style type="text/css"></style></defs><path d="M1060.984 1024c13.312 0 24.204-13.542 24.204-30.255s-10.892-30.255-24.204-30.255H24.82C11.51 963.49 0.617 977.032 0.617 993.745S11.51 1024 24.821 1024zM217.836 399.367H72.612A72.612 72.612 0 0 0 0 471.979v338.856a72.612 72.612 0 0 0 72.612 72.612h145.224a72.612 72.612 0 0 0 72.612-72.612V471.98a72.612 72.612 0 0 0-72.612-72.612z m12.102 399.366a24.204 24.204 0 0 1-24.204 24.204H84.714a24.204 24.204 0 0 1-24.204-24.204V484.081a24.204 24.204 0 0 1 24.204-24.204h121.02a24.204 24.204 0 0 1 24.204 24.204zM615.521 0H470.296a72.612 72.612 0 0 0-72.612 72.612v738.223a72.612 72.612 0 0 0 72.612 72.612h145.225a72.612 72.612 0 0 0 72.612-72.612V72.612A72.612 72.612 0 0 0 615.52 0z m12.102 798.733a24.204 24.204 0 0 1-24.204 24.204h-121.02a24.204 24.204 0 0 1-24.205-24.204V84.714a24.204 24.204 0 0 1 24.204-24.204h121.02a24.204 24.204 0 0 1 24.205 24.204z m385.582-580.897H867.981a72.612 72.612 0 0 0-72.612 72.612v520.387a72.612 72.612 0 0 0 72.612 72.612h145.224a72.612 72.612 0 0 0 72.612-72.612V290.448a72.612 72.612 0 0 0-72.612-72.612z m12.102 580.897a24.204 24.204 0 0 1-24.204 24.204h-121.02a24.204 24.204 0 0 1-24.204-24.204V302.55a24.204 24.204 0 0 1 24.204-24.204h121.02a24.204 24.204 0 0 1 24.204 24.204z" fill="#e6e6e6" p-id="13105"></path></svg>