<?xml version="1.0" standalone="no"?><!DOCTYPE svg PUBLIC "-//W3C//DTD SVG 1.1//EN" "http://www.w3.org/Graphics/SVG/1.1/DTD/svg11.dtd"><svg t="1558317891418" class="icon" style="" viewBox="0 0 1025 1024" version="1.1" xmlns="http://www.w3.org/2000/svg" p-id="3983" xmlns:xlink="http://www.w3.org/1999/xlink" width="200.1953125" height="200"><defs><style type="text/css"></style></defs><path d="M390.4 512 185.6 512C118.5 512 64 457.5 64 390.4L64 185.6C64 118.5 118.5 64 185.6 64l204.9 0c67 0 121.6 54.5 121.6 121.6l0 204.9C512 457.5 457.5 512 390.4 512zM185.6 128c-31.7 0-57.6 25.8-57.6 57.6l0 204.9c0 31.7 25.8 57.6 57.6 57.6l204.9 0c31.7 0 57.6-25.8 57.6-57.6L448.1 185.6c0-31.7-25.8-57.6-57.6-57.6L185.6 128zM902.4 512 697.6 512c-67 0-121.6-54.5-121.6-121.6L576 185.6c0-67 54.5-121.6 121.6-121.6l204.9 0c67 0 121.6 54.5 121.6 121.6l0 204.9C1024 457.5 969.5 512 902.4 512zM697.6 128c-31.7 0-57.6 25.8-57.6 57.6l0 204.9c0 31.7 25.8 57.6 57.6 57.6l204.9 0c31.7 0 57.6-25.8 57.6-57.6L960.1 185.6c0-31.7-25.8-57.6-57.6-57.6L697.6 128zM390.4 1024 185.6 1024c-67 0-121.6-54.5-121.6-121.6L64 697.6c0-67 54.5-121.6 121.6-121.6l204.9 0c67 0 121.6 54.5 121.6 121.6l0 204.9C512 969.5 457.5 1024 390.4 1024zM185.6 640c-31.7 0-57.6 25.8-57.6 57.6l0 204.9c0 31.7 25.8 57.6 57.6 57.6l204.9 0c31.7 0 57.6-25.8 57.6-57.6L448.1 697.6c0-31.7-25.8-57.6-57.6-57.6L185.6 640zM902.4 1024 697.6 1024c-67 0-121.6-54.5-121.6-121.6L576 697.6c0-67 54.5-121.6 121.6-121.6l204.9 0c67 0 121.6 54.5 121.6 121.6l0 204.9C1024 969.5 969.5 1024 902.4 1024zM697.6 640c-31.7 0-57.6 25.8-57.6 57.6l0 204.9c0 31.7 25.8 57.6 57.6 57.6l204.9 0c31.7 0 57.6-25.8 57.6-57.6L960.1 697.6c0-31.7-25.8-57.6-57.6-57.6L697.6 640z" p-id="3984" fill="#e6e6e6"></path></svg>