<?xml version="1.0" standalone="no"?><!DOCTYPE svg PUBLIC "-//W3C//DTD SVG 1.1//EN" "http://www.w3.org/Graphics/SVG/1.1/DTD/svg11.dtd"><svg t="1560232959610" class="icon" style="" viewBox="0 0 1024 1024" version="1.1" xmlns="http://www.w3.org/2000/svg" p-id="2336" xmlns:xlink="http://www.w3.org/1999/xlink" width="200" height="200"><defs><style type="text/css"></style></defs><path d="M659.619884 443.728735a44.143877 44.143877 0 0 1-44.143877-44.143877 104.841708 104.841708 0 0 0-209.683416 0 44.143877 44.143877 0 1 1-88.287755 0 193.129462 193.129462 0 1 1 386.258925 0 44.143877 44.143877 0 0 1-44.143877 44.143877z" fill="#e6e6e6" p-id="2337"></path><path d="M794.810508 443.728735a44.143877 44.143877 0 0 1-44.143877-44.143877 240.032332 240.032332 0 1 0-480.064664 0 44.143877 44.143877 0 0 1-88.287754 0 328.320086 328.320086 0 1 1 656.640172 0 44.143877 44.143877 0 0 1-44.143877 44.143877z" fill="#e6e6e6" p-id="2338"></path><path d="M898.27272 595.473313h-342.115048v-151.744578a44.143877 44.143877 0 0 0-88.287754 0v151.744578h-342.115048a55.179846 55.179846 0 0 0-55.179846 55.179846v246.929813a55.179846 55.179846 0 0 0 55.179846 55.179846h772.51785a55.179846 55.179846 0 0 0 55.179846-55.179846v-246.929813a55.179846 55.179846 0 0 0-55.179846-55.179846zM206.676115 818.261943a44.143877 44.143877 0 1 1 44.143877-44.143878 44.143877 44.143877 0 0 1-44.143877 44.143878z m133.783537 0a44.143877 44.143877 0 1 1 44.143878-44.143878 44.143877 44.143877 0 0 1-44.143878 44.143878z" fill="#e6e6e6" p-id="2339"></path></svg>