<?xml version="1.0" standalone="no"?><!DOCTYPE svg PUBLIC "-//W3C//DTD SVG 1.1//EN" "http://www.w3.org/Graphics/SVG/1.1/DTD/svg11.dtd"><svg t="1554952270894" class="icon" style="" viewBox="0 0 1024 1024" version="1.1" xmlns="http://www.w3.org/2000/svg" p-id="2562" xmlns:xlink="http://www.w3.org/1999/xlink" width="64" height="64"><defs><style type="text/css"></style></defs><path d="M845.844 744.256H178.156a72.563 72.563 0 0 1-72.562-72.562V236.206c0-40.106 32.512-72.562 72.562-72.562H845.9c40.106 0 72.563 32.512 72.563 72.562v435.488a72.563 72.563 0 0 1-72.62 72.562z m14.568-508.05a14.512 14.512 0 0 0-14.512-14.512H178.156a14.512 14.512 0 0 0-14.512 14.512v195.019l242.1-61.425a22.613 22.613 0 0 1 17.268 2.644c0.507 0.225 1.07 0.225 1.575 0.506l187.425 109.575 248.4-63V236.206z m0 240.469L618.256 538.1a22.894 22.894 0 0 1-15.3-1.631 21.544 21.544 0 0 1-18.056-1.575L401.863 427.906 163.588 488.32v183.319c0 8.043 6.525 14.512 14.512 14.512h667.744a14.512 14.512 0 0 0 14.512-14.512V476.675zM345.05 802.306h333.844c12.037 0 21.769 9.732 21.769 21.769v14.512a21.769 21.769 0 0 1-21.77 21.77H345.05a21.769 21.769 0 0 1-21.769-21.77v-14.512c0-11.981 9.731-21.769 21.769-21.769z" fill="" p-id="2563"></path></svg>