<?xml version="1.0" standalone="no"?><!DOCTYPE svg PUBLIC "-//W3C//DTD SVG 1.1//EN" "http://www.w3.org/Graphics/SVG/1.1/DTD/svg11.dtd"><svg t="1550023180635" class="icon" style="" viewBox="0 0 1024 1024" version="1.1" xmlns="http://www.w3.org/2000/svg" p-id="4287" xmlns:xlink="http://www.w3.org/1999/xlink" width="64" height="64"><defs><style type="text/css"></style></defs><path d="M560.872727 791.272727a116.898909 116.898909 0 0 1 0-46.545454H162.909091a23.272727 23.272727 0 0 0 0 46.545454h397.963636z m228.072728 0H861.090909a23.272727 23.272727 0 0 0 0-46.545454h-72.145454a116.898909 116.898909 0 0 1 0 46.545454z m-220.718546-69.818182a116.386909 116.386909 0 0 1 213.364364 0H861.090909a46.545455 46.545455 0 1 1 0 93.09091h-79.499636a116.386909 116.386909 0 0 1-213.364364 0H162.909091a46.545455 46.545455 0 1 1 0-93.09091h405.317818zM235.054545 465.454545a116.898909 116.898909 0 0 1 0-46.545454H162.909091a23.272727 23.272727 0 0 0 0 46.545454h72.145454z m228.072728 0H861.090909a23.272727 23.272727 0 0 0 0-46.545454H463.127273a116.898909 116.898909 0 0 1 0 46.545454z m-220.718546-69.818181a116.386909 116.386909 0 0 1 213.364364 0H861.090909a46.545455 46.545455 0 1 1 0 93.090909H455.773091a116.386909 116.386909 0 0 1-213.364364 0H162.909091a46.545455 46.545455 0 1 1 0-93.090909h79.499636zM46.545455 23.272727a23.272727 23.272727 0 0 0-23.272728 23.272728v930.90909a23.272727 23.272727 0 0 0 23.272728 23.272728h930.90909a23.272727 23.272727 0 0 0 23.272728-23.272728V46.545455a23.272727 23.272727 0 0 0-23.272728-23.272728H46.545455z m0-23.272727h930.90909a46.545455 46.545455 0 0 1 46.545455 46.545455v930.90909a46.545455 46.545455 0 0 1-46.545455 46.545455H46.545455a46.545455 46.545455 0 0 1-46.545455-46.545455V46.545455a46.545455 46.545455 0 0 1 46.545455-46.545455zM23.272727 186.181818h977.454546v23.272727H23.272727V186.181818z m325.818182 349.090909a93.090909 93.090909 0 1 0 0-186.181818 93.090909 93.090909 0 0 0 0 186.181818z m325.818182 325.818182a93.090909 93.090909 0 1 0 0-186.181818 93.090909 93.090909 0 0 0 0 186.181818z" p-id="4288"></path></svg>