<?xml version="1.0" standalone="no"?><!DOCTYPE svg PUBLIC "-//W3C//DTD SVG 1.1//EN" "http://www.w3.org/Graphics/SVG/1.1/DTD/svg11.dtd"><svg t="1561276203028" class="icon" viewBox="0 0 1177 1024" version="1.1" xmlns="http://www.w3.org/2000/svg" p-id="1960" xmlns:xlink="http://www.w3.org/1999/xlink" width="73.5625" height="64"><defs><style type="text/css">@font-face { font-weight: 400; font-style: normal; font-family: Inter-Loom; src: url("https://cdn.loom.com/assets/fonts/inter/Inter-UI-Regular.woff2") format("woff2"); }
@font-face { font-weight: 400; font-style: italic; font-family: Inter-Loom; src: url("https://cdn.loom.com/assets/fonts/inter/Inter-UI-Italic.woff2") format("woff2"); }
@font-face { font-weight: 500; font-style: normal; font-family: Inter-Loom; src: url("https://cdn.loom.com/assets/fonts/inter/Inter-UI-Medium.woff2") format("woff2"); }
@font-face { font-weight: 500; font-style: italic; font-family: Inter-Loom; src: url("https://cdn.loom.com/assets/fonts/inter/Inter-UI-MediumItalic.woff2") format("woff2"); }
@font-face { font-weight: 700; font-style: normal; font-family: Inter-Loom; src: url("https://cdn.loom.com/assets/fonts/inter/Inter-UI-Bold.woff2") format("woff2"); }
@font-face { font-weight: 700; font-style: italic; font-family: Inter-Loom; src: url("https://cdn.loom.com/assets/fonts/inter/Inter-UI-BoldItalic.woff2") format("woff2"); }
@font-face { font-weight: 900; font-style: normal; font-family: Inter-Loom; src: url("https://cdn.loom.com/assets/fonts/inter/Inter-UI-Black.woff2") format("woff2"); }
@font-face { font-weight: 900; font-style: italic; font-family: Inter-Loom; src: url("https://cdn.loom.com/assets/fonts/inter/Inter-UI-BlackItalic.woff2") format("woff2"); }
</style></defs><path d="M862.495 839.206v0c-17.844 0-32.327-14.466-32.327-32.327s14.482-32.327 32.327-32.327h9.214c110.574 0 183.569-122.778 183.569-232.949 0-121.065-105.321-218.498-225.384-221.019l-23.308-0.501-6.902-22.257c-33.362-107.908-105.5-171.172-233.903-171.172-160.196 0-263.82 118.769-263.82 276.234l0.243 0.372 2.618 29.644-29.337 5.059c-71.491 12.284-128.483 85.618-128.483 166.904 0 91.987 71.248 169.685 154.394 169.685h28.738c17.844 0 32.327 14.466 32.327 32.327s-14.483 32.327-32.327 32.327h-28.738c-118.204 0-218.062-107.309-218.062-234.338 0-103.77 64.832-195.384 154.637-224.108 11.217-180.466 141.528-318.761 327.812-318.761 146.377 0 243.292 75.775 288.389 195.417 146.183 15.728 263.109 134.965 263.109 284.186 0 138.812-93.167 293.254-254.801 297.505v0.097z" p-id="1961"></path><path d="M599.854 892.578l103.77-114.438c9.036-9.44 23.647-9.44 32.666 0l8.147 6.498c9.035 9.472 9.035 20.706 0 30.144l-119.642 131.069c-0.161 0.194-0.226 0.372-0.372 0.533l-8.179 8.567c-4.477 4.735-10.441 7.080-16.389 7.031-5.964 0.033-11.896-2.312-16.455-7.031l-8.179-8.567c-0.161-0.162-0.194-0.372-0.339-0.533l-116.684-129.050c-9.036-9.44-9.036-24.714 0-34.186l8.147-4.478c9.036-9.44 23.679-7.418 32.699 2.020l100.811 112.417z" p-id="1962"></path><path d="M600.193 498.819c17.844 0 32.327 14.482 32.327 32.327v355.597c0 17.86-14.483 32.327-32.327 32.327s-32.327-14.466-32.327-32.327v-355.597c0-17.844 14.466-32.327 32.327-32.327z" p-id="1963"></path></svg>