<?xml version="1.0" standalone="no"?><!DOCTYPE svg PUBLIC "-//W3C//DTD SVG 1.1//EN" "http://www.w3.org/Graphics/SVG/1.1/DTD/svg11.dtd"><svg t="1554952445607" class="icon" style="" viewBox="0 0 1024 1024" version="1.1" xmlns="http://www.w3.org/2000/svg" p-id="3346" xmlns:xlink="http://www.w3.org/1999/xlink" width="64" height="64"><defs><style type="text/css"></style></defs><path d="M511.360879 0a511.296967 511.296967 0 1 0 0 1022.593933 511.296967 511.296967 0 0 0 0-1022.593933z m259.355386 458.889028a28.504806 28.504806 0 0 1-2.173012 2.684309l-370.690301 392.292597a20.004494 20.004494 0 0 1-7.605542 5.11297 47.294969 47.294969 0 0 1-17.639746 3.834727 29.719136 29.719136 0 0 1-22.369242-9.586818 31.572588 31.572588 0 0 1-7.285982-24.350518 18.151042 18.151042 0 0 1 0.958682-4.090376l81.168394-235.06878H279.615529a36.749469 36.749469 0 0 1-2.620397 0.063912c-17.639745 0-25.181376-9.075521-28.057421-14.444139a28.440894 28.440894 0 0 1 3.706903-31.061291l315.981525-373.885907a20.132318 20.132318 0 0 1 5.816003-4.793409 47.742354 47.742354 0 0 1 21.538385-5.879915c8.947697 0 16.936712 3.451255 22.560978 9.586818 6.710773 7.413806 9.33117 17.831482 7.861191 30.997379-0.127824 0.639121-0.127824 1.278242-0.31956 1.853451l-42.245912 210.079141 164.190238 1.022594 1.469979 0.063912c16.041942 1.278242 22.433154 10.992885 24.478342 15.147173 6.774685 13.677194-0.830858 26.715267-3.259518 30.42217z" p-id="3347"></path></svg>