<?xml version="1.0" standalone="no"?><!DOCTYPE svg PUBLIC "-//W3C//DTD SVG 1.1//EN" "http://www.w3.org/Graphics/SVG/1.1/DTD/svg11.dtd"><svg t="1566957483505" class="icon" viewBox="0 0 1024 1024" version="1.1" xmlns="http://www.w3.org/2000/svg" p-id="2419" xmlns:xlink="http://www.w3.org/1999/xlink" width="128" height="128"><defs><style type="text/css"></style></defs><path d="M900.093269 437.569877h-34.100565V35.597312c0-18.237099-13.833899-33.070421-30.840149-33.070421h-8.925526c-17.005909 0-30.840832 14.833323-30.840832 33.070421v401.972565H231.684096V35.597312c0-18.237099-13.834581-33.070421-30.836395-33.070421h-8.836778c-17.002155 0-30.836736 14.833323-30.836736 33.070421v401.972565H123.806037c-56.675669 0-102.788096 49.447936-102.788096 110.223702v363.86065c0 60.779861 46.112427 110.228821 102.788096 110.228822h776.384171c56.683861 0 102.791851-49.448619 102.791851-110.228822V547.793579c-0.096256-60.775765-46.204928-110.223701-102.88879-110.223702z" fill="#ffffff" p-id="2420"></path><path d="M936.696832 911.75936c0 21.633365-16.426325 39.251285-36.603221 39.251285H123.70944c-20.1728 0-36.599467-17.61792-36.599467-39.251285V547.793579c0-21.633365 16.426667-39.246165 36.599467-39.246166h776.383829c20.176896 0 36.603221 17.613141 36.603222 39.246166V911.75936z" fill="#ffffff" p-id="2421"></path><path d="M143.36 608.268629h101.347328v103.017472H143.36zM300.754261 608.268629h101.347328v103.017472H300.754261z" fill="#ffffff" p-id="2422"></path><path d="M300.754261 151.883093c6.148779 0 12.394155-1.855488 17.870848-5.666133 57.444011-39.661568 124.111531-60.675413 192.795307-60.675413 68.401835 0 134.872064 20.808363 192.223573 60.160341 15.372288 10.611712 35.830784 5.770581 45.730134-10.712064 9.891499-16.482645 5.376341-38.426624-9.995606-49.037653-67.910656-46.667776-146.783915-71.391915-227.857408-71.391915-81.46432 0-160.525995 24.928939-228.730538 72.011435-15.368192 10.607616-19.790848 32.551253-9.895254 49.03424 6.342315 10.506581 17.001813 16.277163 27.858944 16.277162z" fill="#ffffff" p-id="2423"></path><path d="M680.779435 245.926912c9.706496-16.688128 4.901205-38.530731-10.566998-48.933205-47.549099-31.730347-102.397611-48.522923-158.691328-48.522923-57.066155 0-112.590848 17.2032-160.62225 49.862997-15.464789 10.506581-20.076544 32.45056-10.277888 48.932864 6.342315 10.712405 17.001813 16.483328 27.955541 16.483328 6.052181 0 12.196864-1.754795 17.673557-5.565781 37.371904-25.444011 80.695296-38.836565 125.170347-38.836565 43.902635 0 86.654976 13.082624 123.725141 37.806421 15.565483 10.507264 36.02432 5.460651 45.633878-11.227136zM511.521109 278.160384c-40.156501 0-78.968832 12.672-112.204117 36.776277-15.179093 11.021995-19.118763 33.070421-8.933717 49.243478 6.434816 10.196651 16.808619 15.657301 27.472554 15.657301 6.338219 0 12.776448-1.955499 18.538838-6.076075 22.193493-16.072363 48.128683-24.623787 75.126442-24.623786 25.838933 0 50.908843 7.830528 72.42991 22.76864 15.372288 10.611712 35.831467 5.766827 45.730133-10.71616 9.891499-16.482987 5.376341-38.421845-9.995947-49.033899-32.176469-22.253227-69.641557-33.995776-108.164096-33.995776z" fill="#ffffff" p-id="2424"></path></svg>