<?xml version="1.0" encoding="iso-8859-1"?>
<!-- Generator: Adobe Illustrator 19.0.0, SVG Export Plug-In . SVG Version: 6.00 Build 0)  -->
<svg version="1.1" id="Capa_1" xmlns="http://www.w3.org/2000/svg" xmlns:xlink="http://www.w3.org/1999/xlink" x="0px" y="0px"
	 viewBox="0 0 512 512" style="enable-background:new 0 0 512 512;" xml:space="preserve">
<path style="fill:#303C42;" d="M506.438,424.521L296.354,44.344c-7.854-14.198-22.813-23.01-39.021-23.01h-2.667
	c-16.208,0-31.166,8.813-39.021,23.021L5.563,424.521C1.917,431.115,0,438.563,0,446.083c0,24.583,20,44.583,44.583,44.583h422.833
	c24.583,0,44.583-20,44.583-44.583C512,438.563,510.083,431.115,506.438,424.521z"/>
<path style="fill:#F9C20A;" d="M467.417,469.333H44.583c-12.813,0-23.25-10.427-23.25-23.25c0-3.917,1-7.813,2.896-11.25
	L234.313,54.677c4.104-7.406,11.896-12.01,20.354-12.01h2.667c8.459,0,16.25,4.604,20.354,12l210.083,380.167
	c1.896,3.438,2.896,7.333,2.896,11.25C490.667,458.906,480.229,469.333,467.417,469.333z"/>
<path style="opacity:0.1;enable-background:new    ;" d="M487.771,434.833L277.688,54.667c-4.104-7.396-11.896-12-20.354-12h-2.667
	c-4.709,0,191.532,297.979,182.667,373.333c-1.778,15.111-8,29.333-32,32H21.721c1.026,11.88,10.728,21.333,22.862,21.333h422.833
	c12.813,0,23.25-10.427,23.25-23.25C490.667,442.167,489.667,438.271,487.771,434.833z"/>
<path style="fill:#303C42;" d="M330.667,277.333h-48.25l36.813-92.042c1.313-3.281,0.917-7.01-1.063-9.938
	c-1.979-2.927-5.292-4.688-8.833-4.688h-74.667c-4.5,0-8.521,2.833-10.042,7.083l-53.333,149.333
	c-1.167,3.26-0.667,6.896,1.313,9.729c2,2.833,5.25,4.521,8.729,4.521h48.25l-36.813,92.042c-1.938,4.844-0.083,10.375,4.375,13.083
	c1.708,1.042,3.625,1.542,5.521,1.542c3.021,0,6-1.292,8.104-3.729l128-149.333c2.708-3.156,3.333-7.615,1.583-11.396
	C338.625,279.76,334.833,277.333,330.667,277.333z"/>
<linearGradient id="SVGID_1_" gradientUnits="userSpaceOnUse" x1="-42.2021" y1="635.6857" x2="-22.1368" y2="626.325" gradientTransform="matrix(21.3333 0 0 -21.3333 996.3334 13791.667)">
	<stop  offset="0" style="stop-color:#FFFFFF;stop-opacity:0.2"/>
	<stop  offset="1" style="stop-color:#FFFFFF;stop-opacity:0"/>
</linearGradient>
<path style="fill:url(#SVGID_1_);" d="M506.438,424.521L296.354,44.344c-7.854-14.198-22.813-23.01-39.021-23.01h-2.667
	c-16.208,0-31.166,8.813-39.021,23.021L5.563,424.521C1.917,431.115,0,438.563,0,446.083c0,24.583,20,44.583,44.583,44.583h422.833
	c24.583,0,44.583-20,44.583-44.583C512,438.563,510.083,431.115,506.438,424.521z"/>
<g>
</g>
<g>
</g>
<g>
</g>
<g>
</g>
<g>
</g>
<g>
</g>
<g>
</g>
<g>
</g>
<g>
</g>
<g>
</g>
<g>
</g>
<g>
</g>
<g>
</g>
<g>
</g>
<g>
</g>
</svg>
