<?xml version="1.0" standalone="no"?><!DOCTYPE svg PUBLIC "-//W3C//DTD SVG 1.1//EN" "http://www.w3.org/Graphics/SVG/1.1/DTD/svg11.dtd"><svg t="1558318711882" class="icon" style="" viewBox="0 0 1024 1024" version="1.1" xmlns="http://www.w3.org/2000/svg" p-id="10959" xmlns:xlink="http://www.w3.org/1999/xlink" width="200" height="200"><defs><style type="text/css"></style></defs><path d="M607.966349 160.04782h-191.989373A30.206328 30.206328 0 0 1 383.978747 128.049591a30.206328 30.206328 0 0 1 31.998229-31.998229h191.989373A30.206328 30.206328 0 0 1 639.964578 128.049591a30.206328 30.206328 0 0 1-31.998229 31.998229z" p-id="10960" fill="#e6e6e6"></path><path d="M959.946867 96.051362h-95.994687A34.455693 34.455693 0 0 0 831.953951 128.049591a34.404496 34.404496 0 0 0 31.998229 31.998229h95.994687V320.038964h-895.950409V160.04782h95.994686A34.353299 34.353299 0 0 0 191.989373 128.049591a34.404496 34.404496 0 0 0-31.998229-31.998229H63.996458A64.201246 64.201246 0 0 0 0 160.04782V960.003542A64.150049 64.150049 0 0 0 63.996458 1024h895.950409a64.150049 64.150049 0 0 0 63.996458-63.996458V160.04782a64.201246 64.201246 0 0 0-63.996458-63.996458z m0 863.95218h-895.950409V384.035422h895.950409z" p-id="10961" fill="#e6e6e6"></path><path d="M287.98406 224.044278A30.206328 30.206328 0 0 1 255.985831 192.046049V32.054904A30.206328 30.206328 0 0 1 287.98406 0.056675a30.206328 30.206328 0 0 1 31.998229 31.998229V192.046049a30.206328 30.206328 0 0 1-31.998229 31.998229z m447.975205 0a30.206328 30.206328 0 0 1-31.998229-31.998229V32.054904a31.998229 31.998229 0 0 1 63.996458 0V192.046049a30.206328 30.206328 0 0 1-31.998229 31.998229zM287.98406 640.021253h-63.996458a31.998229 31.998229 0 0 1 0-63.996458h63.996458a31.998229 31.998229 0 0 1 0 63.996458z m255.985831 0h-63.996458a31.998229 31.998229 0 0 1 0-63.996458h63.996458a31.998229 31.998229 0 0 1 0 63.996458z m255.985831 0h-63.996457a31.998229 31.998229 0 0 1 0-63.996458h63.996457a31.998229 31.998229 0 0 1 0 63.996458z m-511.971662 191.989374h-63.996458a31.998229 31.998229 0 0 1 0-63.996458h63.996458a31.998229 31.998229 0 0 1 0 63.996458z m255.985831 0h-63.996458a31.998229 31.998229 0 0 1 0-63.996458h63.996458a31.998229 31.998229 0 0 1 0 63.996458z m255.985831 0h-63.996457a31.998229 31.998229 0 0 1 0-63.996458h63.996457a31.998229 31.998229 0 0 1 0 63.996458z" p-id="10962" fill="#e6e6e6"></path></svg>