<?xml version="1.0" standalone="no"?><!DOCTYPE svg PUBLIC "-//W3C//DTD SVG 1.1//EN" "http://www.w3.org/Graphics/SVG/1.1/DTD/svg11.dtd"><svg t="1558324255873" class="icon" style="" viewBox="0 0 1024 1024" version="1.1" xmlns="http://www.w3.org/2000/svg" p-id="14708" xmlns:xlink="http://www.w3.org/1999/xlink" width="200" height="200"><defs><style type="text/css"></style></defs><path d="M892.342857 887.442286a68.242286 68.242286 0 0 1-68.242286 68.315428h-614.4a68.242286 68.242286 0 0 1-68.315428-68.315428V136.557714c0-37.741714 30.573714-68.315429 68.315428-68.315428h614.4c37.668571 0 68.242286 30.573714 68.242286 68.315428v750.884572zM824.100571 0h-614.4C134.290286 0 73.142857 61.147429 73.142857 136.557714v750.884572C73.142857 962.852571 134.290286 1024 209.700571 1024h614.4a136.557714 136.557714 0 0 0 136.484572-136.557714V136.557714C960.585143 61.147429 899.510857 0 824.100571 0z m-138.24 172.397714a34.157714 34.157714 0 0 1 0 48.274286l-241.371428 241.371429-96.548572 48.274285 48.274286-96.548571 241.371429-241.371429a34.157714 34.157714 0 0 1 48.274285 0M277.942857 580.242286h477.842286a34.157714 34.157714 0 0 1 0 68.315428H277.942857a34.157714 34.157714 0 1 1 0-68.315428m0 170.715428h477.842286a34.157714 34.157714 0 0 1 0 68.242286H277.942857a34.157714 34.157714 0 1 1 0-68.242286" p-id="14709" fill="#e6e6e6"></path></svg>