<?xml version="1.0" standalone="no"?><!DOCTYPE svg PUBLIC "-//W3C//DTD SVG 1.1//EN" "http://www.w3.org/Graphics/SVG/1.1/DTD/svg11.dtd"><svg t="1558318754416" class="icon" style="" viewBox="0 0 1024 1024" version="1.1" xmlns="http://www.w3.org/2000/svg" p-id="12322" xmlns:xlink="http://www.w3.org/1999/xlink" width="200" height="200"><defs><style type="text/css"></style></defs><path d="M1006.9 507.5L526.2 19.1c-10.7-10.9-26.7-10.9-37.4 0L8 507.5c-8 10.9-8 27.1 0 35.3 10.7 10.9 26.7 10.9 37.4 2.7l61.4-62.4v504.6c0 16.3 10.7 27.1 26.7 27.1h267.1c16 0 26.7-10.9 26.7-27.1V635h160.3v352.7c0 16.3 10.7 27.1 26.7 27.1h267.1c16 0 26.7-10.9 26.7-27.1V483.1l61.4 62.4c10.7 10.9 26.7 10.9 37.4 0s10.7-27.1 0-38zM854.7 960.6H641V607.9c0-16.3-10.7-27.1-26.7-27.1H400.6c-16 0-26.7 10.9-26.7 27.1v352.7H160.3V428.8L507.5 76.1l347.2 352.7v531.8z m0 0" fill="#e6e6e6" p-id="12323"></path></svg>