<?xml version="1.0" standalone="no"?><!DOCTYPE svg PUBLIC "-//W3C//DTD SVG 1.1//EN" "http://www.w3.org/Graphics/SVG/1.1/DTD/svg11.dtd"><svg t="1566957734039" class="icon" viewBox="0 0 1410 1024" version="1.1" xmlns="http://www.w3.org/2000/svg" p-id="3254" xmlns:xlink="http://www.w3.org/1999/xlink" width="176.25" height="128"><defs><style type="text/css"></style></defs><path d="M1408.570408 76.753763v479.325707a55.022276 55.022276 0 0 1-55.022276 54.868152h-152.336183a55.083925 55.083925 0 0 1-55.083926-54.868152V76.753763A55.145575 55.145575 0 0 1 1201.211949 21.577363h152.336183a55.083925 55.083925 0 0 1 55.022276 55.1764z m-176.040458 658.726068v233.343769a55.11475 55.11475 0 0 1-55.053101 55.1764h-141.115954a55.484648 55.484648 0 0 1-50.059482-32.366045l-25.646237-43.462974-389.9646 3.698977-25.615412 40.688742a54.837327 54.837327 0 0 1-49.59711 31.4413H240.772695a55.11475 55.11475 0 0 1-55.022275-55.1764v-225.021071a55.1764 55.1764 0 0 1 54.097531-54.868152l231.432631-4.007225a54.806502 54.806502 0 0 1 32.951716 10.172186l15.998073 11.713425h476.366527l15.011679-12.946417a54.991451 54.991451 0 0 1 35.880073-13.562914h129.988199a55.299699 55.299699 0 0 1 55.053101 55.176399zM1002.669384 0H519.089854a55.083925 55.083925 0 0 0-55.022276 55.1764v526.795906a55.083925 55.083925 0 0 0 55.022276 55.1764h483.57953a55.11475 55.11475 0 0 0 55.053101-55.1764V55.1764a55.11475 55.11475 0 0 0-55.053101-55.1764z m-106.684648 394.557495a48.82649 48.82649 0 0 1-47.28525 51.169176h-175.701384a48.795665 48.795665 0 0 1-47.254425-51.169176V250.605659a49.319687 49.319687 0 0 1 47.254425-51.169175h175.701384a48.82649 48.82649 0 0 1 47.28525 51.169175v143.951836zM376.001112 76.753763v475.318483a55.022276 55.022276 0 0 1-55.022276 54.868151H55.022424a55.053101 55.053101 0 0 1-55.022275-54.868151V76.753763A55.11475 55.11475 0 0 1 55.022424 21.577363h265.956412a55.083925 55.083925 0 0 1 55.022276 55.1764z" p-id="3255" fill="#ffffff"></path></svg>