<?xml version="1.0" standalone="no"?><!DOCTYPE svg PUBLIC "-//W3C//DTD SVG 1.1//EN" "http://www.w3.org/Graphics/SVG/1.1/DTD/svg11.dtd"><svg t="1550024039972" class="icon" style="" viewBox="0 0 1027 1024" version="1.1" xmlns="http://www.w3.org/2000/svg" p-id="12520" xmlns:xlink="http://www.w3.org/1999/xlink" width="64.1875" height="64"><defs><style type="text/css"></style></defs><path d="M786.811173 864.577829a29.257143 29.257143 0 1 0 41.3696-41.3696 29.257143 29.257143 0 0 0-41.3696 41.3696z m62.083657-62.039772a58.543543 58.543543 0 0 1 0 82.724572 58.543543 58.543543 0 0 1-82.768457 0 58.485029 58.485029 0 0 1 0-82.724572 58.543543 58.543543 0 0 1 82.768457 0zM654.788315 775.753143c0-0.014629 0.043886-0.043886 0.043886-0.1024l41.472 41.691428c-0.848457 3.028114-1.3312 6.144-1.901714 9.274515 0.117029 3.452343-0.380343 6.919314-1.477486 10.24-2.9696 34.128457 10.0352 71.182629 34.216229 95.495314 43.2128 43.476114 124.576914 45.904457 170.759314-0.541257 46.1824-46.431086 39.672686-124.021029-3.569371-167.497143-24.195657-24.327314-61.059657-37.376-94.997943-34.377143a29.110857 29.110857 0 0 1-10.24 1.462857c-3.072 0.585143-6.187886 1.067886-9.186743 1.960229l-10.415543-10.503314-0.146286 0.146285-72.426057-73.069714-83.587657 84.026514 41.457371 41.808457z m42.261943-209.451886l106.934857 107.563886c48.274286-3.262171 97.338514 13.429029 132.154515 48.449828 64.848457 65.199543 62.171429 171.139657-7.124115 240.771658-69.295543 69.690514-178.819657 76.478171-243.682742 11.264-34.669714-34.845257-51.258514-83.894857-48.215772-132.183772l-107.227428-107.812571L697.064887 566.315886zM335.505115 267.249371l0.1024-0.087771c17.993143-50.395429 9.157486-114.8928-31.056457-155.077486-31.656229-31.6416-78.423771-43.549257-121.504914-38.531657l100.790857 100.571429-124.196571 124.050285-100.688457-100.5568c-4.944457 43.008 6.992457 89.673143 38.575542 121.2416 40.228571 40.213943 104.8576 49.064229 155.282286 31.056458l41.398857 41.3696h-0.029257l31.085714 31.012571 82.783086-82.724571-72.557714-72.323658z m-10.3424 237.845943l-92.481828-92.423314c-62.434743 11.746743-128.380343-4.315429-176.5376-52.443429-59.626057-59.552914-69.997714-146.241829-39.394743-219.867428 0.6144-6.5536 3.291429-12.960914 8.338286-17.993143a29.2864 29.2864 0 0 1 41.398857 0l103.497143 103.424 41.398857-41.354971-103.511772-103.424a29.257143 29.257143 0 0 1 0-41.354972 29.052343 29.052343 0 0 1 17.978515-8.2944C199.532544 0.789943 286.323858 11.117714 345.949915 70.714514c48.215771 48.186514 64.277943 114.161371 52.399543 176.625372l92.408686 92.306285-165.595429 165.449143z m-146.753828 306.468572l289.616457-289.645715 20.6848 20.714058-289.616457 289.616457-20.6848-20.6848z m41.3696 41.3696l289.645714-289.616457 20.6848 20.6848-289.645714 289.645714-20.6848-20.714057zM603.325001 495.177143l-46.884571-46.8992c-15.842743-15.828114-40.989257-16.325486-56.173715-1.141029L97.761573 849.568914c-15.213714 15.242971-14.716343 40.374857 1.111771 56.173715l57.329371 57.300114c15.828114 15.828114 30.573714 5.9392 45.7728-9.259886L604.46603 551.350857c15.199086-15.213714 14.687086-40.3456-1.141029-56.173714zM912.79243 222.354286l-20.874972-20.845715-259.876571 259.832686 20.626286 20.626286c22.908343 22.908343 23.1424 59.904 0.438857 82.563657l-437.979429 437.891657c-22.674286 22.703543-59.626057 22.469486-82.549028-0.438857L49.531173 918.966857c-22.908343-22.922971-23.113143-59.874743-0.453486-82.563657L487.086373 398.482286c22.659657-22.674286 59.611429-22.469486 82.563657 0.438857l20.611657 20.626286 259.876571-259.832686-20.523885-20.553143 114.351542-114.366171 83.207315 83.178057-114.395429 114.366171z" fill="#919191" p-id="12521"></path></svg>