<?xml version="1.0" standalone="no"?><!DOCTYPE svg PUBLIC "-//W3C//DTD SVG 1.1//EN" "http://www.w3.org/Graphics/SVG/1.1/DTD/svg11.dtd"><svg t="1550023232038" class="icon" style="" viewBox="0 0 1024 1024" version="1.1" xmlns="http://www.w3.org/2000/svg" p-id="5306" xmlns:xlink="http://www.w3.org/1999/xlink" width="64" height="64"><defs><style type="text/css"></style></defs><path d="M512 0C229.696 0 0 229.696 0 512s229.696 512 512 512 512-229.696 512-512S794.304 0 512 0zM224 512H160c0-59.712 15.04-115.936 41.408-165.248 14.816 21.952 28.832 42.656 42.048 62.048A285.824 285.824 0 0 0 224 512z m333.248 45.248a64 64 0 0 1-90.496 0C441.76 532.256 256 256 256 256s276.256 185.76 301.248 210.752a64 64 0 0 1 0 90.496zM800 512c0-158.784-129.184-288-288-288a285.824 285.824 0 0 0-103.2 19.456c-19.424-13.216-40.096-27.232-62.048-42.048A349.376 349.376 0 0 1 512 160c194.08 0 352 157.92 352 352h-64z" fill="" p-id="5307"></path></svg>