<?xml version="1.0" standalone="no"?><!DOCTYPE svg PUBLIC "-//W3C//DTD SVG 1.1//EN" "http://www.w3.org/Graphics/SVG/1.1/DTD/svg11.dtd"><svg t="1550023203741" class="icon" style="" viewBox="0 0 1024 1024" version="1.1" xmlns="http://www.w3.org/2000/svg" p-id="5056" xmlns:xlink="http://www.w3.org/1999/xlink" width="64" height="64"><defs><style type="text/css"></style></defs><path d="M784.530286 942.08H234.349714c-20.406857 0-40.740571 40.96-40.740571 40.96V1024h626.614857v-40.96c5.12-20.48-15.286857-40.96-35.693714-40.96zM901.705143 0H117.174857C50.980571 0 0 56.32 0 122.88v573.44c0 66.56 50.980571 122.88 117.174857 122.88h275.090286v40.96c0 20.48 15.36 40.96 40.740571 40.96h157.988572c20.333714 0 40.740571-20.48 40.740571-40.96v-40.96h275.090286c66.194286 0 117.174857-56.32 117.174857-122.88V122.88C1018.88 56.32 967.972571 0 901.705143 0zM117.174857 655.36c-20.406857 0-40.740571-20.48-40.740571-40.96V122.88c0-20.48 15.286857-40.96 40.740571-40.96h784.530286c20.406857 0 40.813714 20.48 40.813714 40.96V614.4a40.228571 40.228571 0 0 1-40.813714 40.96H117.174857z m677.595429-471.04L667.355429 317.44 575.707429 225.28c-10.24-10.24-20.406857-15.36-30.573715-10.24-10.24 0-20.406857 10.24-30.573714 20.48L397.385143 450.56l-45.860572-128a52.224 52.224 0 0 0-30.573714-25.6c-15.286857-5.12-25.453714 0-35.693714 10.24L168.228571 430.08a40.301714 40.301714 0 0 0 0 56.32c15.213714 15.36 40.740571 15.36 56.027429 0L300.544 409.6l56.100571 148.48c5.12 15.36 20.333714 25.6 35.620572 25.6h5.12c15.286857 0 25.453714-10.24 35.620571-20.48l132.461715-240.64L647.021714 409.6c15.286857 15.36 40.740571 15.36 56.027429 0l157.988571-163.84a40.301714 40.301714 0 0 0 0-56.32c-25.6-20.48-50.980571-20.48-66.267428-5.12z" p-id="5057"></path></svg>