<?xml version="1.0" standalone="no"?><!DOCTYPE svg PUBLIC "-//W3C//DTD SVG 1.1//EN" "http://www.w3.org/Graphics/SVG/1.1/DTD/svg11.dtd"><svg t="1605171329164" class="icon" viewBox="0 0 1024 1024" version="1.1" xmlns="http://www.w3.org/2000/svg" p-id="3743" xmlns:xlink="http://www.w3.org/1999/xlink" width="200" height="200"><defs><style type="text/css"></style></defs><path d="M265.6 344c0 55.7 45.1 100.8 100.8 100.8S467.2 399.7 467.2 344s-45.1-100.8-100.8-100.8S265.6 288.3 265.6 344z m156.8 0c0 30.9-25.1 56-56 56s-56-25.1-56-56 25.1-56 56-56 56 25.1 56 56z m515.2 280c12.4 0 22.4-10 22.4-22.4V108.8c0-24.7-20.1-44.8-44.8-44.8H108.8C84.1 64 64 84.1 64 108.8v806.4c0 24.7 20.1 44.8 44.8 44.8h806.4c24.7 0 44.8-20.1 44.8-44.8V765.3c0-7.2-3.4-13.9-9.2-18.1l-35.6-25.8L700 565c-0.3-0.2-0.7-0.3-1-0.5-1.2-0.8-2.4-1.2-3.7-1.7-1.4-0.6-2.8-1.3-4.3-1.6-1.4-0.3-2.8-0.1-4.2-0.1-1.4 0-2.8-0.1-4.2 0.1-1.5 0.3-2.8 1-4.3 1.6-1.3 0.5-2.5 0.9-3.7 1.7-0.3 0.2-0.7 0.2-1 0.5L505.5 687.1 301.1 538.7c-10-7.2-24-5-31.3 5-7.2 10-5 24 5 31.3l217.5 158c0.3 0.2 0.7 0.3 1 0.5 1.2 0.8 2.4 1.1 3.7 1.7 1.4 0.6 2.8 1.3 4.3 1.6 1.4 0.3 2.8 0.1 4.2 0.1 1.4 0 2.8 0.1 4.2-0.1 1.5-0.3 2.9-1 4.3-1.6 1.3-0.5 2.5-0.9 3.7-1.7 0.3-0.2 0.7-0.2 1-0.5l168.1-122.1 228.4 166V893c0 12.4-10 22.4-22.4 22.4H131.2c-12.4 0-22.4-10-22.4-22.4V131.2c0-12.4 10-22.4 22.4-22.4h761.6c12.4 0 22.4 10 22.4 22.4v470.4c0 12.4 10 22.4 22.4 22.4z" fill="#000000" p-id="3744"></path></svg>