<?xml version="1.0" standalone="no"?><!DOCTYPE svg PUBLIC "-//W3C//DTD SVG 1.1//EN" "http://www.w3.org/Graphics/SVG/1.1/DTD/svg11.dtd"><svg t="1561087655455" class="icon" viewBox="0 0 1024 1024" version="1.1" xmlns="http://www.w3.org/2000/svg" p-id="1961" xmlns:xlink="http://www.w3.org/1999/xlink" width="64" height="64"><defs><style type="text/css">@font-face { font-weight: 400; font-style: normal; font-family: Inter-Loom; src: url("https://cdn.loom.com/assets/fonts/inter/Inter-UI-Regular.woff2") format("woff2"); }
@font-face { font-weight: 400; font-style: italic; font-family: Inter-Loom; src: url("https://cdn.loom.com/assets/fonts/inter/Inter-UI-Italic.woff2") format("woff2"); }
@font-face { font-weight: 500; font-style: normal; font-family: Inter-Loom; src: url("https://cdn.loom.com/assets/fonts/inter/Inter-UI-Medium.woff2") format("woff2"); }
@font-face { font-weight: 500; font-style: italic; font-family: Inter-Loom; src: url("https://cdn.loom.com/assets/fonts/inter/Inter-UI-MediumItalic.woff2") format("woff2"); }
@font-face { font-weight: 700; font-style: normal; font-family: Inter-Loom; src: url("https://cdn.loom.com/assets/fonts/inter/Inter-UI-Bold.woff2") format("woff2"); }
@font-face { font-weight: 700; font-style: italic; font-family: Inter-Loom; src: url("https://cdn.loom.com/assets/fonts/inter/Inter-UI-BoldItalic.woff2") format("woff2"); }
@font-face { font-weight: 900; font-style: normal; font-family: Inter-Loom; src: url("https://cdn.loom.com/assets/fonts/inter/Inter-UI-Black.woff2") format("woff2"); }
@font-face { font-weight: 900; font-style: italic; font-family: Inter-Loom; src: url("https://cdn.loom.com/assets/fonts/inter/Inter-UI-BlackItalic.woff2") format("woff2"); }
</style></defs><path d="M0 0h1024v1024H0z" fill="#FFFFFF" p-id="1962"></path><path d="M117.333333 401.322667l74.666667 18.666666c16 0 26.666667 13.333333 26.666667 26.666667L213.333333 686.656c0 16-13.333333 26.666667-26.666666 26.666667l-74.666667 21.333333c-16 0-26.666667-13.312-26.666667-26.666667l5.333334-280c0-16 13.333333-26.666667 26.666666-26.666666z m520-130.666667c29.333333 0 50.666667 34.666667 13.333334 74.666667-34.666667 40-77.333333 56-101.333334 72l-2.666666 2.666666 336 10.666667c29.333333 0 56 21.333333 56 45.333333 0 26.666667-26.666667 45.354667-56 45.354667L746.666667 524.010667l2.666666 2.666666c10.666667 10.666667 16 24 16 40 0 21.333333-16 40-34.666666 45.333334h-2.666667v2.666666c8 10.666667 10.666667 21.333333 10.666667 34.666667-2.666667 26.666667-21.333333 48-42.666667 45.333333H693.333333l2.666667 2.666667c2.666667 5.333333 2.666667 13.333333 2.666667 18.666667 0 21.333333-18.666667 37.333333-40 37.333333l-56-5.333333h-8c-45.333333 0-90.666667 0-138.666667-2.666667-18.666667 0-34.666667-2.666667-53.333333-2.666667-32-2.666667-72-2.666667-101.333334-18.666666-24-10.666667-48-45.333333-48-72L256 467.989333c0-18.666667 5.333333-34.666667 16-42.666666 0 0 80-80 165.333333-90.666667s149.333333-34.666667 178.666667-58.666667c5.333333-2.666667 13.333333-5.333333 21.333333-5.333333z" fill="" p-id="1963"></path></svg>