<?xml version="1.0" standalone="no"?><!DOCTYPE svg PUBLIC "-//W3C//DTD SVG 1.1//EN" "http://www.w3.org/Graphics/SVG/1.1/DTD/svg11.dtd"><svg t="1591316353954" class="icon" viewBox="0 0 1024 1024" version="1.1" xmlns="http://www.w3.org/2000/svg" p-id="2593" xmlns:xlink="http://www.w3.org/1999/xlink" width="96" height="96"><defs><style type="text/css">@font-face { font-weight: 400; font-style: normal; font-family: Inter-Loom; src: url("https://cdn.loom.com/assets/fonts/inter/Inter-UI-Regular.woff2") format("woff2"); }
@font-face { font-weight: 400; font-style: italic; font-family: Inter-Loom; src: url("https://cdn.loom.com/assets/fonts/inter/Inter-UI-Italic.woff2") format("woff2"); }
@font-face { font-weight: 500; font-style: normal; font-family: Inter-Loom; src: url("https://cdn.loom.com/assets/fonts/inter/Inter-UI-Medium.woff2") format("woff2"); }
@font-face { font-weight: 500; font-style: italic; font-family: Inter-Loom; src: url("https://cdn.loom.com/assets/fonts/inter/Inter-UI-MediumItalic.woff2") format("woff2"); }
@font-face { font-weight: 700; font-style: normal; font-family: Inter-Loom; src: url("https://cdn.loom.com/assets/fonts/inter/Inter-UI-Bold.woff2") format("woff2"); }
@font-face { font-weight: 700; font-style: italic; font-family: Inter-Loom; src: url("https://cdn.loom.com/assets/fonts/inter/Inter-UI-BoldItalic.woff2") format("woff2"); }
@font-face { font-weight: 900; font-style: normal; font-family: Inter-Loom; src: url("https://cdn.loom.com/assets/fonts/inter/Inter-UI-Black.woff2") format("woff2"); }
@font-face { font-weight: 900; font-style: italic; font-family: Inter-Loom; src: url("https://cdn.loom.com/assets/fonts/inter/Inter-UI-BlackItalic.woff2") format("woff2"); }
</style></defs><path d="M489.536 696.618667V938.666667c-64.533333-16-122.133333-99.968-153.856-218.986667a663.210667 663.210667 0 0 1 153.856-23.061333z m44.928 0c52.48 1.706667 103.744 9.386667 153.856 23.04l-0.106667 0.426666C656.469333 838.890667 598.912 922.666667 534.442667 938.666667V696.618667z m-241.834667 36.330666c20.821333 77.44 52.437333 142.357333 91.541334 187.136l2.133333 2.432a427.242667 427.242667 0 0 1-205.44-139.562666 712.085333 712.085333 0 0 1 111.765333-50.005334z m438.741334 0.021334a712.832 712.832 0 0 1 111.786666 49.941333l-1.813333 2.261333a427.178667 427.178667 0 0 1-203.648 137.344c40.064-44.821333 72.469333-110.72 93.674667-189.546666zM128.362667 523.306667a170.709333 170.709333 0 0 0 152.448 158.442666l1.386666 7.04-9.472 3.264a763.989333 763.989333 0 0 0-118.570666 54.08A428.992 428.992 0 0 1 85.333333 523.306667h43.029334z m810.304 0a429.098667 429.098667 0 0 1-65.258667 217.258666l-3.541333 5.546667a760.746667 760.746667 0 0 0-128.042667-57.344l1.365333-7.04a170.709333 170.709333 0 0 0 152.448-158.421333H938.666667zM384 394.666667a117.376 117.376 0 0 1 112.917333 85.333333H740.053333a32 32 0 0 1 3.072 63.850667l-3.072 0.149333h-77.610666l0.021333 42.069333a21.333333 21.333333 0 0 1-42.517333 2.496l-0.149334-2.496-0.021333-42.069333h-122.88a117.397333 117.397333 0 0 1-108.16 85.248L384 629.333333a117.333333 117.333333 0 0 1 0-234.666666z m0 64a53.333333 53.333333 0 1 0 0 106.666666 53.333333 53.333333 0 0 0 0-106.666666zM152.533333 280.405333a761.6 761.6 0 0 0 129.002667 58.026667l-0.725333 3.84a170.773333 170.773333 0 0 0-149.44 135.808H86.506667a428.693333 428.693333 0 0 1 64.085333-194.645333l1.92-3.029334z m718.954667 0a428.736 428.736 0 0 1 66.005333 197.696h-44.864a170.773333 170.773333 0 0 0-149.418666-135.850666l-0.746667-3.84a759.381333 759.381333 0 0 0 129.024-58.026667zM489.557333 85.333333l-0.021333 245.482667a664.853333 664.853333 0 0 1-154.709333-23.253333c31.573333-120.746667 89.6-206.08 154.730666-222.229334z m44.885334 0c65.130667 16.149333 123.178667 101.482667 154.730666 222.186667l-4.970666 1.386667c-48.810667 12.949333-98.709333 20.266667-149.76 21.909333V85.333333z m-148.117334 16.128c-38.528 43.093333-69.973333 105.664-91.178666 180.48l-3.349334 12.266667a716.373333 716.373333 0 0 1-112.853333-50.773333 427.178667 427.178667 0 0 1 207.381333-141.973334z m251.349334 0a427.392 427.392 0 0 1 207.381333 141.952l-8.768 4.842667a712.746667 712.746667 0 0 1-104.085333 45.952c-21.184-80.256-53.909333-147.306667-94.528-192.746667z" fill="#3D3D3D" p-id="2594"></path></svg>