<?xml version="1.0" standalone="no"?><!DOCTYPE svg PUBLIC "-//W3C//DTD SVG 1.1//EN" "http://www.w3.org/Graphics/SVG/1.1/DTD/svg11.dtd"><svg t="1554958430949" class="icon" style="" viewBox="0 0 1024 1024" version="1.1" xmlns="http://www.w3.org/2000/svg" p-id="6196" xmlns:xlink="http://www.w3.org/1999/xlink" width="64" height="64"><defs><style type="text/css"></style></defs><path d="M605.696 931.84v73.216c197.12-37.376 362.496-201.728 402.944-423.424h-72.192c-34.304 162.816-159.744 304.128-330.752 350.208z m242.688-413.696c0-184.832-147.968-334.848-332.288-334.848s-332.288 150.016-332.288 334.848 148.992 334.848 332.288 334.848 332.288-150.016 332.288-334.848z m-331.264 281.6c-154.112 0-278.528-125.44-278.528-280.576 0-155.136 124.928-280.576 278.528-280.576 154.112 0 278.528 125.44 278.528 280.576 0 155.136-124.416 280.576-278.528 280.576zM936.448 445.44H1008.64c-40.96-221.696-205.824-386.048-402.944-423.424v73.216c171.008 46.592 296.448 187.904 330.752 350.208zM94.208 585.216h-71.68c40.96 221.696 206.336 386.048 402.944 423.424v-73.216c-171.52-46.08-296.96-187.392-331.264-350.208z m331.264-486.4V25.6C228.352 62.976 62.976 227.328 22.016 449.024h71.68c34.816-162.816 160.256-304.128 331.776-350.208z" p-id="6197" fill="#1afa29"></path></svg>