<?xml version="1.0" standalone="no"?><!DOCTYPE svg PUBLIC "-//W3C//DTD SVG 1.1//EN" "http://www.w3.org/Graphics/SVG/1.1/DTD/svg11.dtd"><svg t="1548820102516" class="icon" style="" viewBox="0 0 1024 1024" version="1.1" xmlns="http://www.w3.org/2000/svg" p-id="3028" xmlns:xlink="http://www.w3.org/1999/xlink" width="64" height="64"><defs><style type="text/css"></style></defs><path d="M546.4064 84.92373333c14.47253333 0 26.76053333 12.288 26.76053333 26.76053334V208.896l36.0448 12.56106667c11.4688 3.82293333 22.1184 8.46506667 32.49493334 13.38026666l34.13333333 16.65706667 27.0336-27.0336 41.7792-41.7792c6.82666667-6.82666667 14.7456-7.64586667 18.8416-7.64586667s12.288 1.09226667 18.8416 7.64586667l47.24053333 47.24053333c6.82666667 6.82666667 7.64586667 14.7456 7.64586667 18.8416s-1.09226667 12.288-7.64586667 18.8416L787.79733333 309.38453333l-27.0336 27.0336 16.65706667 34.13333334c4.9152 10.10346667 9.55733333 21.02613333 13.38026667 32.49493333l12.56106666 36.0448h97.21173334c14.47253333 0 26.76053333 12.288 26.76053333 26.76053333v66.90133334c0 14.47253333-12.288 26.76053333-26.76053333 26.76053333h-97.21173334l-12.56106666 36.0448c-3.82293333 11.4688-8.46506667 22.1184-13.38026667 32.49493333l-16.65706667 34.13333334 27.0336 27.0336 41.7792 41.7792c6.82666667 6.82666667 7.64586667 14.7456 7.64586667 18.8416s-1.09226667 12.288-7.64586667 18.8416L782.336 815.65013333c-6.82666667 6.82666667-14.7456 7.64586667-18.8416 7.64586667s-12.288-1.09226667-18.8416-7.64586667l-41.7792-41.7792-27.0336-27.0336-34.13333333 16.65706667c-10.10346667 4.9152-21.02613333 9.55733333-32.49493334 13.38026667l-36.0448 12.56106666v97.21173334c0 14.47253333-12.288 26.76053333-26.76053333 26.76053333h-66.90133333c-14.47253333 0-26.76053333-12.288-26.76053334-26.76053333v-97.21173334l-36.0448-12.56106666c-11.4688-3.82293333-22.1184-8.46506667-32.49493333-13.38026667l-34.13333333-16.65706667-27.0336 27.0336-41.7792 41.7792c-6.82666667 6.82666667-14.7456 7.64586667-18.8416 7.64586667s-12.288-1.09226667-18.8416-7.64586667l-47.24053334-47.24053333c-6.82666667-6.82666667-7.64586667-14.7456-7.64586666-18.8416s1.09226667-12.288 7.64586666-18.8416l41.7792-41.7792 27.0336-27.0336-16.65706666-34.13333333c-4.9152-10.10346667-9.55733333-21.02613333-13.38026667-32.49493334L222.54933333 559.24053333H125.61066667c-14.47253333 0-26.76053333-12.288-26.76053334-26.76053333V465.57866667c0-14.47253333 12.288-26.76053333 26.76053334-26.76053334h97.21173333l12.56106667-36.0448c3.82293333-11.4688 8.46506667-22.1184 13.38026666-32.49493333l16.65706667-34.13333333-27.0336-27.0336-41.7792-41.7792c-6.82666667-6.82666667-7.64586667-14.7456-7.64586667-18.8416s1.09226667-12.288 7.64586667-18.8416l47.24053333-47.24053334c6.82666667-6.82666667 14.7456-7.64586667 18.8416-7.64586666s12.288 1.09226667 18.8416 7.64586666l41.7792 41.7792 27.0336 27.0336 34.13333334-16.65706666c10.10346667-4.9152 21.02613333-9.55733333 32.49493333-13.38026667l36.0448-12.56106667V111.68426667c0-14.47253333 12.288-26.76053333 26.76053333-26.76053334h66.62826667m0-53.52106666h-66.90133333c-43.96373333 0-80.2816 36.0448-80.2816 80.2816V170.66666667c-13.1072 4.64213333-25.94133333 9.8304-38.22933334 15.83786666l-41.7792-41.7792c-15.5648-15.5648-36.0448-23.48373333-56.79786666-23.48373333-20.48 0-40.96 7.91893333-56.79786667 23.48373333L158.65173333 191.96586667c-31.1296 31.1296-31.1296 82.19306667 0 113.32266666l41.7792 41.7792c-6.00746667 12.288-11.19573333 25.12213333-15.83786666 38.22933334H125.61066667c-43.96373333 0-80.2816 36.0448-80.2816 80.2816v66.90133333c0 43.96373333 36.0448 80.2816 80.2816 80.2816h59.25546666c4.64213333 13.1072 9.8304 25.94133333 15.83786667 38.22933333l-41.7792 41.7792c-31.1296 31.1296-31.1296 82.19306667 0 113.32266667L205.89226667 853.33333333c15.5648 15.5648 36.0448 23.48373333 56.79786666 23.48373334 20.48 0 41.23306667-7.91893333 56.79786667-23.48373334l41.7792-41.7792c12.288 6.00746667 25.12213333 11.19573333 38.22933333 15.83786667v59.25546667c0 43.96373333 36.0448 80.2816 80.2816 80.2816h66.90133334c43.96373333 0 80.2816-36.0448 80.2816-80.2816v-59.25546667c13.1072-4.64213333 25.94133333-9.8304 38.22933333-15.83786667l41.7792 41.7792c15.5648 15.5648 36.0448 23.48373333 56.79786667 23.48373334 20.48 0 40.96-7.91893333 56.79786666-23.48373334l47.24053334-47.24053333c31.1296-31.1296 31.1296-82.19306667 0-113.32266667L826.02666667 650.99093333c6.00746667-12.288 11.19573333-25.12213333 15.83786666-38.22933333h59.25546667c43.96373333 0 80.2816-36.0448 80.2816-80.2816V465.57866667c0-43.96373333-36.0448-80.2816-80.2816-80.2816h-59.25546667c-4.64213333-13.1072-9.8304-25.94133333-15.83786666-38.22933334l41.7792-41.7792c31.1296-31.1296 31.1296-82.19306667 0-113.32266666L820.56533333 144.72533333c-15.5648-15.5648-36.0448-23.48373333-56.79786666-23.48373333-20.48 0-41.23306667 7.91893333-56.79786667 23.48373333L664.91733333 186.50453333c-12.288-6.00746667-25.12213333-11.19573333-38.22933333-15.83786666V111.68426667c0-44.2368-36.0448-80.2816-80.2816-80.2816z" p-id="3029"></path><path d="M513.09226667 358.8096c77.27786667 0 140.35626667 62.80533333 140.35626666 140.35626667s-62.80533333 140.35626667-140.35626666 140.35626666-140.35626667-62.80533333-140.35626667-140.35626666 62.80533333-140.35626667 140.35626667-140.35626667m0-53.52106667c-107.04213333 0-193.60426667 86.8352-193.60426667 193.60426667s86.8352 193.60426667 193.60426667 193.60426667 193.60426667-86.8352 193.60426666-193.60426667-86.56213333-193.60426667-193.60426666-193.60426667z" p-id="3030"></path></svg>