<?xml version="1.0" standalone="no"?><!DOCTYPE svg PUBLIC "-//W3C//DTD SVG 1.1//EN" "http://www.w3.org/Graphics/SVG/1.1/DTD/svg11.dtd"><svg t="1560510227294" class="icon" style="" viewBox="0 0 3011 1024" version="1.1" xmlns="http://www.w3.org/2000/svg" p-id="4199" xmlns:xlink="http://www.w3.org/1999/xlink" width="188.1875" height="64"><defs><style type="text/css">@font-face { font-weight: 400; font-style: normal; font-family: Inter-Loom; src: url("https://cdn.loom.com/assets/fonts/inter/Inter-UI-Regular.woff2") format("woff2"); }
@font-face { font-weight: 400; font-style: italic; font-family: Inter-Loom; src: url("https://cdn.loom.com/assets/fonts/inter/Inter-UI-Italic.woff2") format("woff2"); }
@font-face { font-weight: 500; font-style: normal; font-family: Inter-Loom; src: url("https://cdn.loom.com/assets/fonts/inter/Inter-UI-Medium.woff2") format("woff2"); }
@font-face { font-weight: 500; font-style: italic; font-family: Inter-Loom; src: url("https://cdn.loom.com/assets/fonts/inter/Inter-UI-MediumItalic.woff2") format("woff2"); }
@font-face { font-weight: 700; font-style: normal; font-family: Inter-Loom; src: url("https://cdn.loom.com/assets/fonts/inter/Inter-UI-Bold.woff2") format("woff2"); }
@font-face { font-weight: 700; font-style: italic; font-family: Inter-Loom; src: url("https://cdn.loom.com/assets/fonts/inter/Inter-UI-BoldItalic.woff2") format("woff2"); }
@font-face { font-weight: 900; font-style: normal; font-family: Inter-Loom; src: url("https://cdn.loom.com/assets/fonts/inter/Inter-UI-Black.woff2") format("woff2"); }
@font-face { font-weight: 900; font-style: italic; font-family: Inter-Loom; src: url("https://cdn.loom.com/assets/fonts/inter/Inter-UI-BlackItalic.woff2") format("woff2"); }
</style></defs><path d="M373.458824 0H2891.294118c66.258824 0 120.470588 54.211765 120.470588 120.470588 0 12.047059-3.011765 24.094118-6.02353 36.141177l-252.988235 783.058823c-15.058824 51.2-63.247059 84.329412-114.447059 84.329412H120.470588c-66.258824 0-120.470588-54.211765-120.470588-120.470588 0-12.047059 3.011765-24.094118 6.023529-36.141177l252.988236-783.058823C274.070588 33.129412 322.258824 0 373.458824 0z m433.694117 210.823529v84.329412h-213.835294V361.411765h213.835294v96.37647h-256v66.258824H752.941176c-45.176471 81.317647-117.458824 147.576471-213.835294 198.77647l39.152942 66.258824c105.411765-69.270588 180.705882-159.623529 228.894117-265.035294v295.152941h69.270588v-295.152941c42.164706 96.376471 117.458824 186.729412 219.858824 265.035294l48.188235-63.247059c-99.388235-60.235294-171.670588-126.494118-216.847059-201.788235h198.776471v-66.258824h-256V361.411765h219.858824V295.152941h-219.858824V210.823529h-63.247059z m993.882353 195.764706h-72.282353c18.070588-27.105882 33.129412-60.235294 51.2-99.388235L1716.705882 283.105882c-15.058824 45.176471-33.129412 84.329412-57.223529 123.482353h-256V542.117647h36.141176v36.141177h27.105883c18.070588 45.176471 45.176471 84.329412 81.317647 120.470588-48.188235 21.082353-105.411765 42.164706-171.670588 54.211764l36.141176 66.258824c75.294118-21.082353 141.552941-45.176471 192.752941-75.294118 45.176471 30.117647 102.4 54.211765 171.670588 78.305883l42.164706-63.247059c-57.223529-15.058824-108.423529-36.141176-150.588235-57.22353 42.164706-36.141176 72.282353-78.305882 93.364706-126.494117V542.117647h39.152941v-135.529412z m-201.788235-114.447059l-57.22353 15.058824c18.070588 30.117647 33.129412 60.235294 45.176471 90.352941l54.211765-21.082353c-9.035294-24.094118-24.094118-51.2-42.164706-84.329412z m-114.447059 3.011765l-57.223529 15.058824c18.070588 30.117647 33.129412 57.223529 45.17647 87.341176l54.211765-21.082353c-12.047059-21.082353-27.105882-51.2-42.164706-81.317647z m277.082353-87.341176c-99.388235 15.058824-219.858824 21.082353-364.423529 21.082353l21.082352 60.235294c156.611765 0 283.105882-9.035294 376.470589-27.105883l-33.129412-54.211764zM1280 813.176471c39.152941 0 60.235294-21.082353 60.235294-60.235295v-180.705882c15.058824-9.035294 33.129412-18.070588 48.188235-24.094118v-69.270588c-15.058824 9.035294-33.129412 18.070588-48.188235 27.105883v-111.435295h54.211765v-66.258823h-54.211765V210.823529h-69.270588v114.447059H1204.705882V391.529412h66.258824v141.552941c-24.094118 9.035294-48.188235 15.058824-72.282353 21.082353l18.070588 69.270588 54.211765-21.082353v138.541177c0 9.035294-6.023529 15.058824-15.058824 15.058823-15.058824 0-30.117647 0-48.188235-3.011765l15.058824 66.258824h57.223529z m758.964706-313.22353c15.058824 21.082353 33.129412 48.188235 54.211765 84.329412l39.152941-60.235294c-33.129412-36.141176-63.247059-69.270588-96.376471-99.388235v-27.105883h81.317647V331.294118h-81.317647V210.823529h-69.270588v120.470589h-96.376471v66.258823h93.364706c-21.082353 75.294118-60.235294 141.552941-108.423529 198.776471l30.117647 78.305882c33.129412-48.188235 57.223529-102.4 78.305882-162.635294v307.2h69.270588V499.952941z m207.811765 111.435294c-42.164706 60.235294-99.388235 111.435294-165.647059 153.6l45.17647 57.22353c63.247059-39.152941 114.447059-90.352941 159.62353-147.576471 39.152941 54.211765 87.341176 102.4 144.564706 150.588235l48.188235-54.211764c-60.235294-45.176471-111.435294-96.376471-153.6-153.6 51.2-87.341176 87.341176-189.741176 105.411765-307.2V240.941176H2126.305882v66.258824h24.094118c12.047059 111.435294 45.176471 210.823529 96.376471 304.188235z" p-id="4200"></path><path d="M1466.729412 518.023529h265.035294v-45.17647h-265.035294zM1532.988235 581.270588c18.070588 30.117647 42.164706 60.235294 75.294118 84.329412 33.129412-24.094118 60.235294-51.2 81.317647-84.329412h-156.611765zM2367.247059 307.2h-150.588235c9.035294 87.341176 30.117647 168.658824 69.270588 240.941176 42.164706-72.282353 66.258824-150.588235 81.317647-240.941176z" p-id="4201"></path></svg>