<?xml version="1.0" standalone="no"?><!DOCTYPE svg PUBLIC "-//W3C//DTD SVG 1.1//EN" "http://www.w3.org/Graphics/SVG/1.1/DTD/svg11.dtd"><svg t="1573815247479" class="icon" viewBox="0 0 1024 1024" version="1.1" xmlns="http://www.w3.org/2000/svg" p-id="2001" xmlns:xlink="http://www.w3.org/1999/xlink" width="128" height="128"><defs><style type="text/css">@font-face { font-weight: 400; font-style: normal; font-family: Inter-Loom; src: url("https://cdn.loom.com/assets/fonts/inter/Inter-UI-Regular.woff2") format("woff2"); }
@font-face { font-weight: 400; font-style: italic; font-family: Inter-Loom; src: url("https://cdn.loom.com/assets/fonts/inter/Inter-UI-Italic.woff2") format("woff2"); }
@font-face { font-weight: 500; font-style: normal; font-family: Inter-Loom; src: url("https://cdn.loom.com/assets/fonts/inter/Inter-UI-Medium.woff2") format("woff2"); }
@font-face { font-weight: 500; font-style: italic; font-family: Inter-Loom; src: url("https://cdn.loom.com/assets/fonts/inter/Inter-UI-MediumItalic.woff2") format("woff2"); }
@font-face { font-weight: 700; font-style: normal; font-family: Inter-Loom; src: url("https://cdn.loom.com/assets/fonts/inter/Inter-UI-Bold.woff2") format("woff2"); }
@font-face { font-weight: 700; font-style: italic; font-family: Inter-Loom; src: url("https://cdn.loom.com/assets/fonts/inter/Inter-UI-BoldItalic.woff2") format("woff2"); }
@font-face { font-weight: 900; font-style: normal; font-family: Inter-Loom; src: url("https://cdn.loom.com/assets/fonts/inter/Inter-UI-Black.woff2") format("woff2"); }
@font-face { font-weight: 900; font-style: italic; font-family: Inter-Loom; src: url("https://cdn.loom.com/assets/fonts/inter/Inter-UI-BlackItalic.woff2") format("woff2"); }
</style></defs><path d="M888.576 55.808c-51.52 21.056-107.776 36.544-163.584 37.76C650.048 91.328 569.728 41.216 506.56 3.904c-11.584-6.848-23.68-3.52-33.472 4.352-36.736 29.248-88 61.696-136.32 78.144-62.976 21.44-142.208-6.4-201.344-30.592-17.024-6.912-35.072 10.368-35.072 26.752v483.008c0 122.88 73.792 228.096 160.256 309.184 44.544 41.728 94.72 78.336 147.584 108.8 30.592 17.536 67.52 38.976 103.808 40.256 35.136 1.216 74.624-23.808 103.808-40.256a805.056 805.056 0 0 0 147.584-108.8c86.976-79.744 160.256-187.264 160.256-309.184V82.56c0-16.384-18.048-33.664-35.072-26.752z m-200.64 811.264a662.4 662.4 0 0 1-139.84 89.216 213.376 213.376 0 0 1-21.44 8.512c-2.496 0.832-13.184 3.072-13.568 3.52-5.76-0.128-21.824-5.248-32.768-9.984-95.68-41.728-182.784-114.048-247.744-194.944-37.504-46.72-64.832-101.76-74.752-161.024-3.776-22.528-2.048-46.976-2.048-69.696V122.624c59.968 21.12 127.616 35.2 187.904 19.584 54.272-14.016 105.792-46.592 150.912-81.024 68.992 40.512 151.04 85.44 230.4 87.808a485.184 485.184 0 0 0 143.232-26.752v443.328c0 124.48-89.344 226.496-180.288 301.504z" p-id="2002"></path><path d="M687.296 331.712L464.768 637.504l-132.416-112c-27.072-22.912-66.432 16.064-39.168 39.168l156.8 132.672c14.528 12.288 32.448 9.6 43.52-5.632l241.6-332.096c21.056-28.928-27.008-56.512-47.808-27.904z" p-id="2003"></path></svg>